<?xml version="1.0" encoding="UTF-8" standalone="no"?>
<!-- Created with Inkscape (http://www.inkscape.org/) -->

<svg
   width="210mm"
   height="297mm"
   viewBox="0 0 210 297"
   version="1.1"
   id="svg1"
   xml:space="preserve"
   inkscape:version="1.3.2 (091e20e, 2023-11-25, custom)"
   sodipodi:docname="filled teardrop.svg"
   xmlns:inkscape="http://www.inkscape.org/namespaces/inkscape"
   xmlns:sodipodi="http://sodipodi.sourceforge.net/DTD/sodipodi-0.dtd"
   xmlns="http://www.w3.org/2000/svg"
   xmlns:svg="http://www.w3.org/2000/svg"><sodipodi:namedview
     id="namedview1"
     pagecolor="#ffffff"
     bordercolor="#000000"
     borderopacity="0.25"
     inkscape:showpageshadow="2"
     inkscape:pageopacity="0.0"
     inkscape:pagecheckerboard="0"
     inkscape:deskcolor="#d1d1d1"
     inkscape:document-units="mm"
     inkscape:zoom="0.76702441"
     inkscape:cx="329.84609"
     inkscape:cy="523.4514"
     inkscape:window-width="1920"
     inkscape:window-height="1057"
     inkscape:window-x="-8"
     inkscape:window-y="-8"
     inkscape:window-maximized="1"
     inkscape:current-layer="layer1" /><defs
     id="defs1" /><g
     inkscape:label="Layer 1"
     inkscape:groupmode="layer"
     id="layer1"><g
       style="fill:#000000"
       id="g3"
       transform="matrix(1.0355005,0,0,1.0355005,-0.9692171,42.666801)"><g
         id="g2">
	<g
   id="g1">
		<path
   d="m 100.178,0.833 c -3.153,3.3 -77.344,81.287 -77.344,124.212 0,43.771 35.604,79.365 79.371,79.365 43.782,0 79.371,-35.6 79.371,-79.365 0,-42.925 -74.188,-120.912 -77.344,-124.212 -1.061,-1.111 -3.001,-1.111 -4.054,0 z m 2.022,197.975 c -40.673,0 -73.768,-33.095 -73.768,-73.773 0,-36.89 61.705,-105.18 73.768,-118.173 12.051,12.982 73.768,81.284 73.768,118.173 0,40.678 -33.095,73.773 -73.768,73.773 z"
   id="path1" />
	</g>
</g></g><path
       style="fill:#000000;fill-opacity:1;stroke:#000000;stroke-width:8.20432;stroke-opacity:1"
       d="M 379.38819,937.86651 C 301.91773,933.94039 226.91674,896.07988 175.7009,835.04513 148.18653,802.25582 127.35211,761.29607 116.73195,719.11424 c -7.55542,-30.00908 -10.21912,-65.86661 -6.67386,-89.8403 11.36015,-76.8192 77.45453,-190.81706 191.94055,-331.05405 34.86022,-42.70123 91.84752,-107.87393 94.32543,-107.87393 1.13478,0 22.56678,23.52847 46.33236,50.86456 140.71375,161.85445 227.04471,301.1464 239.77266,386.86473 2.38573,16.06709 2.55848,29.03494 0.64828,48.66504 -11.05586,113.61555 -86.69958,209.41148 -194.55274,246.38345 -35.24465,12.08184 -69.72753,16.73999 -109.13644,14.74277 z"
       id="path8"
       transform="scale(0.26458333)" /></g></svg>
